<svg width="500" height="500" viewBox="0 0 500 500" fill="none" xmlns="http://www.w3.org/2000/svg">
    <path d="M373.166 123.784C406.156 156.614 424.69 201.14 424.69 247.568C424.69 293.996 406.156 338.522 373.166 371.351C340.176 404.181 295.432 469.981 248.777 469.981C202.122 469.982 157.378 404.181 124.388 371.352L248.777 247.568L373.166 123.784Z" fill="#FFD700"/>
    <path d="M124.389 371.351C91.3988 338.521 72.8651 293.995 72.8651 247.567C72.8651 201.139 91.3988 156.613 124.389 123.784C157.379 90.9542 202.123 72.5108 248.778 72.5108C295.433 72.5108 340.177 90.9542 373.167 123.784L248.778 247.567L124.389 371.351Z" fill="#FFD700"/>
    <path d="M73.1296 247.583C73.1296 201.192 91.6481 156.702 124.611 123.9C157.575 91.097 202.282 72.6687 248.899 72.6687C295.516 72.6687 340.224 91.097 373.187 123.9C406.15 156.702 424.669 201.192 424.669 247.583L248.899 247.583L73.1296 247.583Z" fill="#0057B7"/>
    <g filter="url(#filter0_d_224_224)">
    <path d="M346.062 200.736C342.827 193.284 338.164 186.531 332.332 180.854C326.496 175.161 319.615 170.637 312.064 167.528C304.233 164.291 295.835 162.634 287.356 162.654C275.46 162.654 263.854 165.895 253.768 172.018C251.355 173.483 249.063 175.092 246.891 176.845C244.719 175.092 242.427 173.483 240.014 172.018C229.928 165.895 218.322 162.654 206.427 162.654C197.861 162.654 189.56 164.286 181.718 167.528C174.142 170.649 167.313 175.14 161.45 180.854C155.611 186.524 150.946 193.279 147.72 200.736C144.366 208.492 142.653 216.728 142.653 225.204C142.653 233.2 144.294 241.532 147.552 250.008C150.278 257.091 154.187 264.439 159.182 271.858C167.096 283.6 177.978 295.846 191.491 308.26C213.882 328.838 236.057 343.053 236.998 343.629L242.717 347.279C245.25 348.888 248.508 348.888 251.041 347.279L256.76 343.629C257.701 343.029 279.851 328.838 302.267 308.26C315.78 295.846 326.662 283.6 334.576 271.858C339.571 264.439 343.504 257.091 346.206 250.008C349.464 241.532 351.105 233.2 351.105 225.204C351.129 216.728 349.416 208.492 346.062 200.736V200.736Z" fill="#FF6978" stroke="white" stroke-width="12"/>
    </g>
    <defs>
    <filter id="filter0_d_224_224" x="119.35" y="132.639" width="255.082" height="253.879" filterUnits="userSpaceOnUse" color-interpolation-filters="sRGB">
    <feFlood flood-opacity="0" result="BackgroundImageFix"/>
    <feColorMatrix in="SourceAlpha" type="matrix" values="0 0 0 0 0 0 0 0 0 0 0 0 0 0 0 0 0 0 127 0" result="hardAlpha"/>
    <feOffset dy="4"/>
    <feGaussianBlur stdDeviation="2"/>
    <feComposite in2="hardAlpha" operator="out"/>
    <feColorMatrix type="matrix" values="0 0 0 0 0 0 0 0 0 0 0 0 0 0 0 0 0 0 0.25 0"/>
    <feBlend mode="normal" in2="BackgroundImageFix" result="effect1_dropShadow_224_224"/>
    <feBlend mode="normal" in="SourceGraphic" in2="effect1_dropShadow_224_224" result="shape"/>
    </filter>
    </defs>
    </svg>
    